<!--
  Summer Brain Rot - Icon Only
  Usage: Favicons, app icons, compact layouts
  Size: Square format, scalable
-->
<svg width="64" height="64" viewBox="0 0 64 64" fill="none" xmlns="http://www.w3.org/2000/svg">
  <defs>
    <!-- Icon gradient -->
    <linearGradient id="iconGradient" x1="0%" y1="0%" x2="100%" y2="100%">
      <stop offset="0%" style="stop-color:#8B5CF6"/>
      <stop offset="50%" style="stop-color:#EC4899"/>
      <stop offset="100%" style="stop-color:#06B6D4"/>
    </linearGradient>
    
    <!-- Circuit gradient -->
    <linearGradient id="circuitGradient" x1="0%" y1="0%" x2="100%" y2="0%">
      <stop offset="0%" style="stop-color:#EC4899"/>
      <stop offset="100%" style="stop-color:#06B6D4"/>
    </linearGradient>
    
    <!-- Glow effect -->
    <filter id="glow">
      <feGaussianBlur stdDeviation="2" result="coloredBlur"/>
      <feMerge> 
        <feMergeNode in="coloredBlur"/>
        <feMergeNode in="SourceGraphic"/>
      </feMerge>
    </filter>
  </defs>
  
  <!-- Background circle -->
  <circle cx="32" cy="32" r="30" fill="url(#iconGradient)" opacity="0.1"/>
  
  <!-- Brain shape -->
  <g transform="translate(12,12)">
    <!-- Main brain form -->
    <path d="M20 5C25 5 30 8 32 15C35 12 40 12 42 18C44 16 48 18 48 25C48 30 45 35 40 35C38 38 35 40 30 40C25 40 20 38 18 35C15 35 12 32 12 28C10 30 5 28 5 22C5 18 8 15 12 15C12 10 15 5 20 5Z" 
          fill="url(#iconGradient)" 
          filter="url(#glow)"/>
    
    <!-- Neural network pattern -->
    <g stroke="url(#circuitGradient)" stroke-width="1.5" fill="none" opacity="0.8">
      <!-- Horizontal connections -->
      <path d="M15 18 L20 18 L22 16 L27 16"/>
      <path d="M14 24 L18 24 L20 26 L25 26"/>
      <path d="M23 20 L27 20 L29 22 L33 22"/>
      <path d="M18 30 L22 30 L24 32 L28 32"/>
      
      <!-- Vertical connections -->
      <path d="M20 16 L20 20"/>
      <path d="M25 22 L25 26"/>
      <path d="M30 18 L30 24"/>
    </g>
    
    <!-- Neural nodes -->
    <g fill="url(#circuitGradient)">
      <circle cx="20" cy="16" r="1.5"/>
      <circle cx="27" cy="18" r="1.5"/>
      <circle cx="22" cy="24" r="1.5"/>
      <circle cx="30" cy="26" r="1.5"/>
      <circle cx="24" cy="32" r="1.5"/>
      <circle cx="33" cy="22" r="1.5"/>
    </g>
    
    <!-- Pulse animation dots -->
    <g fill="#FFFFFF" opacity="0.9">
      <circle cx="25" cy="20" r="0.8">
        <animate attributeName="opacity" values="0.3;1;0.3" dur="2s" repeatCount="indefinite"/>
      </circle>
      <circle cx="28" cy="24" r="0.8">
        <animate attributeName="opacity" values="1;0.3;1" dur="2s" repeatCount="indefinite"/>
      </circle>
    </g>
  </g>
</svg>
